<?xml version="1.0" standalone="no"?>
<!DOCTYPE svg PUBLIC "-//W3C//DTD SVG 20010904//EN"
 "http://www.w3.org/TR/2001/REC-SVG-20010904/DTD/svg10.dtd">
<svg version="1.0" xmlns="http://www.w3.org/2000/svg"
 width="1048.000000pt" height="396.000000pt" viewBox="0 0 1048.000000 396.000000"
 preserveAspectRatio="xMidYMid meet">

<g transform="translate(0.000000,396.000000) scale(0.100000,-0.100000)"
fill="#000000" stroke="none">
<path d="M5235 3222 c-16 -11 -39 -29 -49 -41 -19 -21 -19 -21 3 -45 32 -33
56 -37 86 -14 22 17 26 27 23 67 -3 53 -18 61 -63 33z"/>
<path d="M4615 2942 c-40 -25 -214 -243 -215 -269 0 -5 -9 -19 -20 -33 -22
-28 -121 -247 -181 -402 -32 -83 -39 -94 -34 -58 3 25 8 74 11 110 3 36 13
139 24 230 25 220 25 243 -2 274 -13 15 -37 29 -55 32 l-31 6 -5 -118 c-2 -66
-9 -157 -15 -204 -13 -93 -38 -323 -53 -465 -4 -49 -15 -133 -23 -185 -8 -52
-20 -131 -26 -175 -6 -44 -32 -161 -56 -259 -70 -281 -90 -449 -60 -519 16
-38 71 -97 90 -97 9 0 15 20 20 62 3 35 11 95 16 133 5 39 15 106 21 150 16
120 16 125 27 190 6 33 16 96 22 140 7 44 25 131 41 192 32 125 148 497 174
556 8 21 13 42 10 47 -3 6 -1 15 5 22 5 7 48 90 95 183 104 210 214 366 284
403 35 18 43 1 38 -81 -6 -96 -49 -178 -143 -274 -63 -64 -77 -73 -90 -62 -10
8 -13 22 -10 38 6 26 6 26 -10 -2 -18 -32 -10 -66 26 -117 31 -44 66 -40 134
16 31 25 66 64 77 87 12 23 32 54 46 68 33 36 73 153 73 217 0 69 -22 114 -73
152 -47 35 -88 38 -132 12z m-50 -80 l-28 -27 23 33 c12 18 25 31 28 27 3 -3
-7 -18 -23 -33z m-45 -56 c0 -2 -8 -10 -17 -17 -16 -13 -17 -12 -4 4 13 16 21
21 21 13z m-51 -73 c-13 -21 -36 -58 -51 -82 -15 -24 -25 -48 -22 -52 3 -5 0
-9 -6 -9 -7 0 -9 -7 -6 -17 4 -10 4 -14 0 -10 -4 4 -13 -1 -21 -11 -41 -52 31
89 89 176 36 52 48 56 17 5z m291 -24 c0 -5 -4 -9 -8 -9 -5 0 -9 7 -9 15 0 8
4 12 9 9 4 -3 8 -9 8 -15z m-107 -140 c-30 -57 -99 -139 -115 -139 -6 0 7 19
28 43 22 23 54 66 73 95 42 66 51 67 14 1z m-312 -78 c-10 -14 -22 -36 -26
-49 -4 -13 -9 -21 -12 -18 -10 10 27 93 42 93 11 0 10 -6 -4 -26z m-51 -154
c0 -5 -5 -5 -10 -2 -6 3 -14 -4 -19 -17 -8 -18 -10 -19 -10 -5 -1 10 4 28 10
39 9 17 13 18 20 7 5 -8 9 -18 9 -22z m-50 -87 c0 -5 -4 -10 -10 -10 -5 0 -10
5 -10 10 0 6 5 10 10 10 6 0 10 -4 10 -10z m-45 -116 c-8 -16 -15 -23 -15 -16
0 17 20 55 26 49 2 -2 -2 -17 -11 -33z m-21 -72 c-4 -18 -10 -32 -15 -32 -12
0 -11 11 3 42 16 33 20 30 12 -10z m-107 -234 c-3 -7 -5 -2 -5 12 0 14 2 19 5
13 2 -7 2 -19 0 -25z m-136 -511 c-8 -8 -11 -7 -11 4 0 20 13 34 18 19 3 -7
-1 -17 -7 -23z m-1 -32 c0 -8 -2 -15 -4 -15 -2 0 -6 7 -10 15 -3 8 -1 15 4 15
6 0 10 -7 10 -15z"/>
<path d="M7310 2939 c-19 -11 -51 -42 -70 -67 -42 -56 -50 -72 -25 -52 11 9 6
-3 -12 -30 -68 -100 -113 -182 -107 -193 4 -7 3 -9 -1 -4 -5 4 -15 -7 -22 -24
-7 -18 -16 -30 -19 -27 -8 9 41 102 98 187 27 40 47 75 45 78 -6 6 -59 -63
-92 -122 -16 -27 -32 -52 -36 -55 -15 -11 -178 -395 -204 -478 -13 -45 -17
-13 -4 40 7 29 13 80 15 113 1 33 7 96 13 140 27 206 32 304 17 333 -14 27
-53 52 -80 52 -9 0 -16 -39 -24 -142 -24 -306 -53 -556 -108 -960 -8 -59 -35
-189 -59 -288 -81 -327 -96 -480 -54 -550 27 -44 68 -82 83 -77 6 2 14 30 18
63 3 32 11 93 17 134 6 41 17 125 25 185 39 286 49 339 81 465 36 142 157 537
175 570 5 10 10 30 10 44 0 14 5 26 10 26 6 0 10 5 10 11 0 20 137 292 180
359 91 139 196 247 219 224 3 -3 6 -36 5 -74 0 -97 -49 -192 -145 -289 -59
-59 -74 -69 -86 -59 -9 7 -13 22 -10 37 5 24 4 25 -9 6 -18 -25 -18 -53 2 -90
26 -51 52 -73 80 -67 32 6 139 104 161 146 9 17 26 43 39 58 31 37 63 128 70
197 5 46 2 66 -15 104 -12 26 -25 47 -30 47 -4 0 -20 11 -35 25 -33 31 -78 32
-126 4z m-29 -57 c-12 -22 -41 -48 -41 -36 0 8 40 54 47 54 2 0 -1 -8 -6 -18z
m166 -174 c-3 -8 -6 -5 -6 6 -1 11 2 17 5 13 3 -3 4 -12 1 -19z m-78 -110
c-31 -59 -84 -130 -112 -150 -27 -19 -26 -16 14 33 24 30 57 75 74 101 30 48
47 59 24 16z m-324 -97 c-8 -9 -21 -32 -29 -51 -8 -19 -15 -27 -16 -18 0 27
31 85 46 85 12 0 12 -3 -1 -16z m-65 -155 c13 -18 13 -19 -2 -14 -11 5 -18 0
-22 -15 -3 -12 -8 -19 -11 -16 -3 3 0 20 6 38 6 18 12 31 13 29 1 -2 8 -12 16
-22z m-82 -202 c-7 -15 -14 -21 -16 -15 -2 7 2 18 8 26 18 22 21 18 8 -11z
m-25 -86 c-5 -26 -23 -40 -23 -18 0 10 23 51 26 47 1 -1 0 -14 -3 -29z m-111
-230 c-8 -8 -9 -4 -5 13 4 13 8 18 11 10 2 -7 -1 -18 -6 -23z m-125 -470 c-3
-8 -6 -5 -6 6 -1 11 2 17 5 13 3 -3 4 -12 1 -19z m-3 -33 c-4 -8 -8 -15 -10
-15 -2 0 -4 7 -4 15 0 8 4 15 10 15 5 0 7 -7 4 -15z m-4 -32 c0 -5 -5 -15 -10
-23 -7 -12 -9 -10 -7 8 1 19 17 33 17 15z"/>
<path d="M8190 2890 c-14 -4 -19 -8 -12 -9 22 -2 12 -17 -23 -34 -45 -21 -185
-155 -243 -232 -56 -75 -68 -87 -52 -55 41 82 157 211 253 284 59 44 50 46
-19 6 -50 -28 -182 -162 -231 -236 -14 -19 -27 -34 -29 -32 -2 2 2 32 8 65 14
76 3 122 -34 143 -15 8 -29 12 -32 9 -20 -20 -86 -348 -86 -427 0 -63 24 -119
55 -134 30 -13 69 12 85 55 30 85 184 333 243 393 12 13 27 27 32 33 36 40
204 141 221 134 26 -10 14 7 -18 27 -34 21 -74 24 -118 10z m-10 -70 c-14 -11
-29 -20 -35 -20 -5 0 1 9 15 20 14 11 30 20 35 20 6 0 -1 -9 -15 -20z"/>
<path d="M8544 2850 c-26 -10 -74 -66 -75 -88 -1 -9 -2 -29 -3 -44 -1 -15 -11
-38 -23 -50 -77 -83 -80 -279 -6 -338 86 -67 177 -22 266 132 37 64 67 88 108
88 11 0 18 4 15 9 -3 4 6 6 20 3 16 -3 29 1 38 13 7 10 19 15 27 13 8 -3 23
-1 34 5 11 6 29 11 40 12 40 5 85 29 85 47 0 19 26 25 32 8 2 -5 26 5 54 23
35 22 49 37 46 50 -5 25 -23 22 -132 -22 -92 -37 -235 -81 -263 -81 -10 0 -12
16 -9 63 4 57 2 66 -24 96 -16 19 -46 42 -69 52 -42 19 -125 24 -161 9z m164
-130 c-3 -25 -12 -62 -21 -82 -18 -42 -39 -47 -109 -27 -40 10 -48 28 -23 49
8 7 15 25 15 39 0 35 16 57 65 85 l40 23 19 -21 c14 -16 17 -32 14 -66z m343
-73 c-10 -9 -11 -8 -5 6 3 10 9 15 12 12 3 -3 0 -11 -7 -18z m-46 -17 c4 -6
-7 -10 -27 -10 -25 0 -29 3 -18 10 19 13 37 13 45 0z m-85 -20 c0 -5 -15 -10
-32 -10 -25 0 -29 3 -18 10 20 13 50 13 50 0z m-370 -47 c25 -12 53 -24 64
-27 17 -6 17 -7 1 -34 -43 -67 -70 -95 -109 -113 -48 -21 -56 -15 -56 48 0 41
37 157 49 151 3 -2 26 -13 51 -25z"/>
<path d="M5056 2783 c-41 -56 -106 -242 -113 -323 -9 -97 38 -164 136 -190 85
-23 219 16 291 84 19 18 56 47 81 64 26 17 49 38 53 47 3 9 10 13 16 10 5 -3
10 -1 10 5 0 6 5 8 10 5 6 -3 10 -1 10 5 0 20 36 51 53 45 10 -4 17 1 22 14 3
12 10 19 15 16 5 -3 7 3 5 14 -4 20 39 61 64 61 6 0 11 5 11 11 0 6 -21 -1
-47 -16 -59 -34 -83 -54 -80 -67 1 -6 -5 -13 -13 -15 -13 -4 -13 -3 0 6 8 6
10 11 5 11 -15 0 -178 -101 -172 -106 3 -3 37 16 77 41 39 26 74 45 76 42 5
-5 -170 -117 -183 -117 -4 0 2 6 12 14 17 12 15 13 -23 12 -23 0 -42 -4 -42
-9 0 -4 6 -5 13 -1 8 5 7 2 -2 -9 -8 -10 -16 -15 -19 -13 -2 3 -25 -5 -51 -18
-65 -33 -138 -55 -191 -58 -42 -3 -45 -1 -48 23 -8 66 82 323 130 371 21 21
13 46 -24 72 -34 24 -45 20 -82 -31z"/>
<path d="M5857 2713 c-4 -58 -7 -148 -7 -200 l0 -94 -66 -91 c-36 -51 -84
-130 -107 -177 -35 -73 -42 -97 -44 -161 -4 -79 9 -122 38 -128 18 -3 29 22
33 78 1 19 19 68 39 109 37 75 128 221 137 221 3 0 14 -20 26 -43 28 -56 75
-87 131 -87 54 0 179 41 251 82 83 47 292 212 292 230 0 4 16 24 35 45 19 21
35 41 35 46 0 13 -19 7 -32 -11 -7 -10 -27 -25 -45 -32 -17 -8 -29 -18 -27
-22 3 -4 0 -8 -6 -8 -6 0 -8 -4 -5 -10 3 -5 1 -10 -6 -10 -7 0 -31 -16 -54
-35 -23 -19 -48 -35 -56 -37 -8 -2 -16 -9 -20 -17 -3 -7 -21 -19 -40 -26 -18
-7 -42 -16 -51 -20 -13 -5 -18 -3 -18 9 0 9 6 15 13 14 6 -2 11 2 10 9 -2 6
16 28 39 47 23 20 37 36 31 36 -7 0 -18 -7 -27 -15 -8 -8 -17 -15 -21 -15 -3
0 -32 -17 -63 -39 -87 -58 -172 -98 -237 -110 -77 -14 -71 -16 -84 20 -22 65
-15 84 73 197 100 128 174 204 236 240 25 14 47 27 49 29 8 6 -62 72 -81 79
-28 8 -83 -38 -183 -152 -49 -57 -92 -104 -95 -104 -9 0 6 125 18 145 15 28
-8 65 -56 93 -22 12 -42 22 -44 22 -3 0 -8 -48 -11 -107z m-33 -375 c-15 -24
-39 -61 -54 -83 -15 -22 -44 -69 -64 -105 -21 -36 -34 -54 -31 -40 10 34 48
100 113 193 58 83 79 103 36 35z"/>
<path d="M6662 2737 c-23 -23 -42 -49 -42 -56 0 -8 -50 -63 -110 -122 -61 -60
-106 -109 -102 -109 16 0 139 117 203 193 23 26 45 47 51 47 5 0 6 -4 3 -10
-3 -5 1 -10 10 -10 12 0 15 6 11 23 -3 12 -3 16 0 10 9 -20 20 -15 32 12 16
34 15 65 -1 65 -7 0 -32 -19 -55 -43z"/>
<path d="M4388 2708 c-22 -34 -52 -95 -41 -83 13 14 65 105 60 105 -3 0 -11
-10 -19 -22z"/>
<path d="M5700 2682 c-102 -58 -200 -120 -200 -127 0 -8 30 9 124 69 44 29 96
61 115 70 30 16 33 16 28 2 -5 -13 -3 -15 12 -7 23 13 35 41 18 41 -7 0 -50
-22 -97 -48z"/>
<path d="M7068 2678 c-22 -34 -52 -95 -41 -83 13 14 65 105 60 105 -3 0 -11
-10 -19 -22z"/>
<path d="M6596 2590 c-15 -17 -24 -30 -19 -30 12 0 58 48 52 55 -3 2 -17 -9
-33 -25z"/>
<path d="M4310 2569 c-12 -23 -20 -43 -18 -45 3 -2 14 17 26 41 27 56 20 60
-8 4z"/>
<path d="M5420 2503 c-36 -26 -34 -27 13 -4 15 8 27 18 27 23 0 11 0 11 -40
-19z"/>
<path d="M6966 2485 c-9 -26 -7 -32 5 -12 6 10 9 21 6 23 -2 3 -7 -2 -11 -11z"/>
<path d="M6936 2415 c-9 -26 -7 -32 5 -12 6 10 9 21 6 23 -2 3 -7 -2 -11 -11z"/>
<path d="M4226 2385 c-9 -26 -7 -32 5 -12 6 10 9 21 6 23 -2 3 -7 -2 -11 -11z"/>
<path d="M6912 2351 c-6 -17 -9 -31 -6 -31 7 0 25 52 20 57 -2 2 -8 -10 -14
-26z"/>
<path d="M4206 2333 c-6 -14 -5 -15 5 -6 7 7 10 15 7 18 -3 3 -9 -2 -12 -12z"/>
<path d="M6891 2303 c0 -6 -4 -20 -7 -30 -5 -14 -4 -15 5 -7 7 7 11 20 8 30
-3 11 -5 14 -6 7z"/>
<path d="M4185 2280 c-4 -12 -5 -24 -2 -27 3 -2 8 5 12 17 4 12 5 24 2 27 -3
2 -8 -5 -12 -17z"/>
</g>
</svg>
